<mxfile modified="2021-05-05T06:47:50.733Z" host="app.diagrams.net" agent="5.0 (Windows NT 10.0; Win64; x64) AppleWebKit/537.36 (KHTML, like Gecko) Chrome/90.0.4430.93 Safari/537.36" etag="k34zZIF6w6DkgCbVXSw1" compressed="false" version="14.6.9" type="google" pages="2">
  <diagram id="T7nBareY_xEUpFT6BaBN" name="MAINTENANCE VIEW">
    <mxGraphModel dx="1130" dy="406" grid="1" gridSize="10" guides="1" tooltips="1" connect="1" arrows="1" fold="1" page="1" pageScale="1" pageWidth="827" pageHeight="1169" math="0" shadow="0">
      <root>
        <mxCell id="RXroqPlZc1RiU2cGS7MM-0" />
        <mxCell id="RXroqPlZc1RiU2cGS7MM-1" value="About" parent="RXroqPlZc1RiU2cGS7MM-0" />
        <mxCell id="RXroqPlZc1RiU2cGS7MM-4" value="Title" parent="RXroqPlZc1RiU2cGS7MM-0" />
        <mxCell id="RXroqPlZc1RiU2cGS7MM-3" value="Maintenance View" style="text;html=1;strokeColor=none;fillColor=none;align=center;verticalAlign=middle;whiteSpace=wrap;rounded=0;fontSize=48;opacity=30;" parent="RXroqPlZc1RiU2cGS7MM-4" vertex="1">
          <mxGeometry x="160" y="200" width="480" height="320" as="geometry" />
        </mxCell>
      </root>
    </mxGraphModel>
  </diagram>
  <diagram id="qrzgQ6DtiXMvcwbbw6SE" name="Page-145">
    <mxGraphModel dx="1130" dy="406" grid="1" gridSize="10" guides="1" tooltips="1" connect="1" arrows="1" fold="1" page="1" pageScale="1" pageWidth="850" pageHeight="1100" math="0" shadow="0">
      <root>
        <mxCell id="kpDK0dZMDAlXJJjRmCyd-0" />
        <mxCell id="cShYrTTC_mCDZs-oagYY-2" value="About" parent="kpDK0dZMDAlXJJjRmCyd-0" />
        <UserObject label="" tooltip="Reporting at go-live is a dead concept (it&#39;s useful in that it is a release in itself - but reporting should be no more than a point in time summary of current monitoring, which is continuous." id="oXLYr0-WDJrzs4Nkk2H6-3">
          <mxCell style="shape=image;html=1;verticalAlign=top;verticalLabelPosition=bottom;labelBackgroundColor=#ffffff;imageAspect=0;aspect=fixed;image=https://cdn1.iconfinder.com/data/icons/hawcons/32/699014-icon-28-information-128.png;shadow=0;dashed=0;fontFamily=Helvetica;fontSize=12;fontColor=#000000;align=center;strokeColor=#000000;fillColor=#505050;dashPattern=1 1;" parent="cShYrTTC_mCDZs-oagYY-2" vertex="1">
            <mxGeometry x="660" y="980" width="20" height="20" as="geometry" />
          </mxCell>
        </UserObject>
        <mxCell id="cShYrTTC_mCDZs-oagYY-1" value="Title/Page" parent="kpDK0dZMDAlXJJjRmCyd-0" visible="0" />
        <mxCell id="oXLYr0-WDJrzs4Nkk2H6-0" value="" style="group;fontSize=10;" parent="cShYrTTC_mCDZs-oagYY-1" vertex="1" connectable="0">
          <mxGeometry x="120" y="120" width="560" height="45" as="geometry" />
        </mxCell>
        <mxCell id="oXLYr0-WDJrzs4Nkk2H6-1" value="&lt;font style=&quot;font-size: 12px&quot;&gt;Base Logical Module - Maintenance - Target Maintenance and SLA Reporting&lt;/font&gt;" style="text;strokeColor=none;fillColor=none;html=1;fontSize=24;fontStyle=1;verticalAlign=middle;align=left;shadow=0;glass=0;comic=0;opacity=30;fontColor=#808080;" parent="oXLYr0-WDJrzs4Nkk2H6-0" vertex="1">
          <mxGeometry width="560" height="40" as="geometry" />
        </mxCell>
        <mxCell id="oXLYr0-WDJrzs4Nkk2H6-2" value="" style="line;strokeWidth=2;html=1;shadow=0;glass=0;comic=0;fillColor=none;fontSize=10;fontColor=#CCCCCC;labelBackgroundColor=none;strokeColor=#CCCCCC;" parent="oXLYr0-WDJrzs4Nkk2H6-0" vertex="1">
          <mxGeometry y="35" width="560" height="10" as="geometry" />
        </mxCell>
        <mxCell id="cShYrTTC_mCDZs-oagYY-0" value="Title/Diagram" parent="kpDK0dZMDAlXJJjRmCyd-0" />
        <mxCell id="cShYrTTC_mCDZs-oagYY-3" value="&lt;font style=&quot;font-size: 12px&quot;&gt;Diagram: Base System Logical Module - Maintenance - Target Maintenance and SLA Reporting&lt;/font&gt;" style="text;strokeColor=none;fillColor=none;html=1;fontSize=24;fontStyle=2;verticalAlign=middle;align=left;shadow=0;glass=0;comic=0;opacity=30;fontColor=#808080;" parent="cShYrTTC_mCDZs-oagYY-0" vertex="1">
          <mxGeometry x="120" y="960" width="520" height="40" as="geometry" />
        </mxCell>
        <mxCell id="kpDK0dZMDAlXJJjRmCyd-1" value="Boxes" parent="kpDK0dZMDAlXJJjRmCyd-0" />
        <mxCell id="Th4hmaJLGE-ZN5Z5oCGe-0" value="Monitoring" style="rounded=1;whiteSpace=wrap;html=1;strokeColor=#666666;strokeWidth=1;fillColor=#f5f5f5;fontSize=12;fontColor=#333333;align=center;" parent="kpDK0dZMDAlXJJjRmCyd-1" vertex="1">
          <mxGeometry x="230" y="200" width="80" height="40" as="geometry" />
        </mxCell>
        <mxCell id="Th4hmaJLGE-ZN5Z5oCGe-1" value="Customer&lt;br&gt;Reporting" style="rounded=1;whiteSpace=wrap;html=1;strokeColor=#666666;strokeWidth=1;fillColor=#f5f5f5;fontSize=12;fontColor=#333333;align=center;" parent="kpDK0dZMDAlXJJjRmCyd-1" vertex="1">
          <mxGeometry x="600" y="200" width="80" height="40" as="geometry" />
        </mxCell>
        <mxCell id="Th4hmaJLGE-ZN5Z5oCGe-2" value="Alerts" style="rounded=1;whiteSpace=wrap;html=1;strokeColor=#666666;strokeWidth=1;fillColor=#f5f5f5;fontSize=12;fontColor=#333333;align=center;" parent="kpDK0dZMDAlXJJjRmCyd-1" vertex="1">
          <mxGeometry x="120" y="200" width="80" height="40" as="geometry" />
        </mxCell>
        <mxCell id="Th4hmaJLGE-ZN5Z5oCGe-38" style="edgeStyle=elbowEdgeStyle;rounded=1;orthogonalLoop=1;jettySize=auto;html=1;entryX=1;entryY=0.5;entryDx=0;entryDy=0;fontFamily=Helvetica;fontSize=12;fontColor=#000000;" parent="kpDK0dZMDAlXJJjRmCyd-1" source="Th4hmaJLGE-ZN5Z5oCGe-3" target="Th4hmaJLGE-ZN5Z5oCGe-9" edge="1">
          <mxGeometry relative="1" as="geometry" />
        </mxCell>
        <mxCell id="Th4hmaJLGE-ZN5Z5oCGe-39" style="edgeStyle=elbowEdgeStyle;rounded=1;orthogonalLoop=1;jettySize=auto;html=1;entryX=1;entryY=0.5;entryDx=0;entryDy=0;fontFamily=Helvetica;fontSize=12;fontColor=#000000;" parent="kpDK0dZMDAlXJJjRmCyd-1" source="Th4hmaJLGE-ZN5Z5oCGe-3" target="Th4hmaJLGE-ZN5Z5oCGe-7" edge="1">
          <mxGeometry relative="1" as="geometry" />
        </mxCell>
        <mxCell id="Th4hmaJLGE-ZN5Z5oCGe-40" style="edgeStyle=elbowEdgeStyle;rounded=1;orthogonalLoop=1;jettySize=auto;html=1;entryX=1;entryY=0.5;entryDx=0;entryDy=0;fontFamily=Helvetica;fontSize=12;fontColor=#000000;" parent="kpDK0dZMDAlXJJjRmCyd-1" source="Th4hmaJLGE-ZN5Z5oCGe-3" target="Th4hmaJLGE-ZN5Z5oCGe-16" edge="1">
          <mxGeometry relative="1" as="geometry" />
        </mxCell>
        <mxCell id="Th4hmaJLGE-ZN5Z5oCGe-41" style="edgeStyle=elbowEdgeStyle;rounded=1;orthogonalLoop=1;jettySize=auto;html=1;fontFamily=Helvetica;fontSize=12;fontColor=#000000;" parent="kpDK0dZMDAlXJJjRmCyd-1" source="Th4hmaJLGE-ZN5Z5oCGe-3" target="Th4hmaJLGE-ZN5Z5oCGe-5" edge="1">
          <mxGeometry relative="1" as="geometry" />
        </mxCell>
        <mxCell id="Th4hmaJLGE-ZN5Z5oCGe-42" style="edgeStyle=elbowEdgeStyle;rounded=1;orthogonalLoop=1;jettySize=auto;html=1;entryX=1;entryY=0.5;entryDx=0;entryDy=0;fontFamily=Helvetica;fontSize=12;fontColor=#000000;" parent="kpDK0dZMDAlXJJjRmCyd-1" source="Th4hmaJLGE-ZN5Z5oCGe-3" target="Th4hmaJLGE-ZN5Z5oCGe-6" edge="1">
          <mxGeometry relative="1" as="geometry" />
        </mxCell>
        <mxCell id="Th4hmaJLGE-ZN5Z5oCGe-46" style="edgeStyle=elbowEdgeStyle;rounded=1;orthogonalLoop=1;jettySize=auto;html=1;entryX=1;entryY=0.5;entryDx=0;entryDy=0;fontFamily=Helvetica;fontSize=12;fontColor=#000000;" parent="kpDK0dZMDAlXJJjRmCyd-1" source="Th4hmaJLGE-ZN5Z5oCGe-3" target="Th4hmaJLGE-ZN5Z5oCGe-43" edge="1">
          <mxGeometry relative="1" as="geometry" />
        </mxCell>
        <mxCell id="Th4hmaJLGE-ZN5Z5oCGe-50" style="edgeStyle=elbowEdgeStyle;rounded=1;orthogonalLoop=1;jettySize=auto;html=1;entryX=1;entryY=0.5;entryDx=0;entryDy=0;fontFamily=Helvetica;fontSize=12;fontColor=#000000;" parent="kpDK0dZMDAlXJJjRmCyd-1" source="Th4hmaJLGE-ZN5Z5oCGe-3" target="Th4hmaJLGE-ZN5Z5oCGe-47" edge="1">
          <mxGeometry relative="1" as="geometry" />
        </mxCell>
        <mxCell id="Th4hmaJLGE-ZN5Z5oCGe-3" value="SLA Reporting" style="rounded=1;whiteSpace=wrap;html=1;strokeColor=#666666;strokeWidth=1;fillColor=none;fontSize=12;fontColor=#333333;align=center;" parent="kpDK0dZMDAlXJJjRmCyd-1" vertex="1">
          <mxGeometry x="600" y="530" width="80" height="40" as="geometry" />
        </mxCell>
        <mxCell id="Th4hmaJLGE-ZN5Z5oCGe-12" style="edgeStyle=elbowEdgeStyle;rounded=1;orthogonalLoop=1;jettySize=auto;html=1;fontFamily=Helvetica;fontSize=12;fontColor=#000000;entryX=1;entryY=0.5;entryDx=0;entryDy=0;jumpStyle=arc;" parent="kpDK0dZMDAlXJJjRmCyd-1" source="Th4hmaJLGE-ZN5Z5oCGe-5" target="Th4hmaJLGE-ZN5Z5oCGe-14" edge="1">
          <mxGeometry relative="1" as="geometry">
            <mxPoint x="310" y="580" as="targetPoint" />
            <Array as="points">
              <mxPoint x="400" y="660" />
            </Array>
          </mxGeometry>
        </mxCell>
        <mxCell id="Th4hmaJLGE-ZN5Z5oCGe-26" style="edgeStyle=elbowEdgeStyle;rounded=1;orthogonalLoop=1;jettySize=auto;html=1;entryX=1;entryY=0.5;entryDx=0;entryDy=0;fontFamily=Helvetica;fontSize=12;fontColor=#000000;exitX=0;exitY=0.75;exitDx=0;exitDy=0;jumpStyle=arc;" parent="kpDK0dZMDAlXJJjRmCyd-1" source="Th4hmaJLGE-ZN5Z5oCGe-5" target="Th4hmaJLGE-ZN5Z5oCGe-17" edge="1">
          <mxGeometry relative="1" as="geometry">
            <Array as="points">
              <mxPoint x="410" y="660" />
            </Array>
          </mxGeometry>
        </mxCell>
        <mxCell id="Th4hmaJLGE-ZN5Z5oCGe-5" value="Availability" style="rounded=1;whiteSpace=wrap;html=1;strokeColor=#666666;strokeWidth=1;fillColor=none;fontSize=12;fontColor=#333333;align=center;" parent="kpDK0dZMDAlXJJjRmCyd-1" vertex="1">
          <mxGeometry x="470" y="610" width="80" height="40" as="geometry" />
        </mxCell>
        <mxCell id="Th4hmaJLGE-ZN5Z5oCGe-24" style="edgeStyle=elbowEdgeStyle;rounded=1;orthogonalLoop=1;jettySize=auto;html=1;entryX=1;entryY=0.5;entryDx=0;entryDy=0;fontFamily=Helvetica;fontSize=12;fontColor=#000000;exitX=0;exitY=0.25;exitDx=0;exitDy=0;jumpStyle=arc;" parent="kpDK0dZMDAlXJJjRmCyd-1" source="Th4hmaJLGE-ZN5Z5oCGe-6" target="Th4hmaJLGE-ZN5Z5oCGe-22" edge="1">
          <mxGeometry relative="1" as="geometry">
            <Array as="points">
              <mxPoint x="420" y="710" />
            </Array>
          </mxGeometry>
        </mxCell>
        <mxCell id="Th4hmaJLGE-ZN5Z5oCGe-25" style="edgeStyle=elbowEdgeStyle;rounded=1;orthogonalLoop=1;jettySize=auto;html=1;entryX=1;entryY=0.5;entryDx=0;entryDy=0;fontFamily=Helvetica;fontSize=12;fontColor=#000000;exitX=0;exitY=0.75;exitDx=0;exitDy=0;jumpStyle=arc;" parent="kpDK0dZMDAlXJJjRmCyd-1" source="Th4hmaJLGE-ZN5Z5oCGe-6" target="Th4hmaJLGE-ZN5Z5oCGe-21" edge="1">
          <mxGeometry relative="1" as="geometry">
            <Array as="points">
              <mxPoint x="430" y="730" />
            </Array>
          </mxGeometry>
        </mxCell>
        <mxCell id="Th4hmaJLGE-ZN5Z5oCGe-6" value="Responsiveness" style="rounded=1;whiteSpace=wrap;html=1;strokeColor=#666666;strokeWidth=1;fillColor=none;fontSize=12;fontColor=#333333;align=center;" parent="kpDK0dZMDAlXJJjRmCyd-1" vertex="1">
          <mxGeometry x="470" y="660" width="80" height="40" as="geometry" />
        </mxCell>
        <mxCell id="Th4hmaJLGE-ZN5Z5oCGe-20" style="edgeStyle=elbowEdgeStyle;rounded=1;orthogonalLoop=1;jettySize=auto;html=1;entryX=1;entryY=0.5;entryDx=0;entryDy=0;fontFamily=Helvetica;fontSize=12;fontColor=#000000;jumpStyle=arc;" parent="kpDK0dZMDAlXJJjRmCyd-1" source="Th4hmaJLGE-ZN5Z5oCGe-7" target="Th4hmaJLGE-ZN5Z5oCGe-18" edge="1">
          <mxGeometry relative="1" as="geometry">
            <Array as="points">
              <mxPoint x="380" y="380" />
              <mxPoint x="420" y="430" />
              <mxPoint x="430" y="610" />
              <mxPoint x="410" y="640" />
            </Array>
          </mxGeometry>
        </mxCell>
        <mxCell id="Th4hmaJLGE-ZN5Z5oCGe-35" style="edgeStyle=elbowEdgeStyle;rounded=1;orthogonalLoop=1;jettySize=auto;html=1;entryX=1;entryY=0.5;entryDx=0;entryDy=0;fontFamily=Helvetica;fontSize=12;fontColor=#000000;exitX=0;exitY=0.75;exitDx=0;exitDy=0;jumpStyle=arc;" parent="kpDK0dZMDAlXJJjRmCyd-1" source="Th4hmaJLGE-ZN5Z5oCGe-7" target="Th4hmaJLGE-ZN5Z5oCGe-34" edge="1">
          <mxGeometry relative="1" as="geometry" />
        </mxCell>
        <mxCell id="Th4hmaJLGE-ZN5Z5oCGe-7" value="Recoverability" style="rounded=1;whiteSpace=wrap;html=1;strokeColor=#666666;strokeWidth=1;fillColor=none;fontSize=12;fontColor=#333333;align=center;" parent="kpDK0dZMDAlXJJjRmCyd-1" vertex="1">
          <mxGeometry x="470" y="360" width="80" height="40" as="geometry" />
        </mxCell>
        <mxCell id="Th4hmaJLGE-ZN5Z5oCGe-27" style="edgeStyle=elbowEdgeStyle;rounded=1;orthogonalLoop=1;jettySize=auto;html=1;entryX=1;entryY=0.5;entryDx=0;entryDy=0;fontFamily=Helvetica;fontSize=12;fontColor=#000000;jumpStyle=arc;" parent="kpDK0dZMDAlXJJjRmCyd-1" source="Th4hmaJLGE-ZN5Z5oCGe-9" target="Th4hmaJLGE-ZN5Z5oCGe-10" edge="1">
          <mxGeometry relative="1" as="geometry" />
        </mxCell>
        <mxCell id="Th4hmaJLGE-ZN5Z5oCGe-28" style="edgeStyle=elbowEdgeStyle;rounded=1;orthogonalLoop=1;jettySize=auto;html=1;entryX=1;entryY=0.5;entryDx=0;entryDy=0;fontFamily=Helvetica;fontSize=12;fontColor=#000000;exitX=0;exitY=0.25;exitDx=0;exitDy=0;jumpStyle=arc;" parent="kpDK0dZMDAlXJJjRmCyd-1" source="Th4hmaJLGE-ZN5Z5oCGe-9" target="Th4hmaJLGE-ZN5Z5oCGe-13" edge="1">
          <mxGeometry relative="1" as="geometry" />
        </mxCell>
        <mxCell id="Th4hmaJLGE-ZN5Z5oCGe-9" value="Subscription/&lt;br&gt;License Expirations" style="rounded=1;whiteSpace=wrap;html=1;strokeColor=#666666;strokeWidth=1;fillColor=none;fontSize=12;fontColor=#333333;align=center;" parent="kpDK0dZMDAlXJJjRmCyd-1" vertex="1">
          <mxGeometry x="470" y="310" width="80" height="40" as="geometry" />
        </mxCell>
        <mxCell id="Th4hmaJLGE-ZN5Z5oCGe-10" value="Monitor Cert Expiration" style="rounded=1;whiteSpace=wrap;html=1;strokeColor=#666666;strokeWidth=1;fillColor=none;fontSize=12;fontColor=#333333;align=center;" parent="kpDK0dZMDAlXJJjRmCyd-1" vertex="1">
          <mxGeometry x="230" y="310" width="80" height="40" as="geometry" />
        </mxCell>
        <mxCell id="Th4hmaJLGE-ZN5Z5oCGe-13" value="Monitor DNS Subscription" style="rounded=1;whiteSpace=wrap;html=1;strokeColor=#666666;strokeWidth=1;fillColor=none;fontSize=12;fontColor=#333333;align=center;" parent="kpDK0dZMDAlXJJjRmCyd-1" vertex="1">
          <mxGeometry x="230" y="260" width="80" height="40" as="geometry" />
        </mxCell>
        <mxCell id="Th4hmaJLGE-ZN5Z5oCGe-14" value="Monitor DNS Service Availability" style="rounded=1;whiteSpace=wrap;html=1;strokeColor=#666666;strokeWidth=1;fillColor=none;fontSize=12;fontColor=#333333;align=center;" parent="kpDK0dZMDAlXJJjRmCyd-1" vertex="1">
          <mxGeometry x="230" y="660" width="80" height="40" as="geometry" />
        </mxCell>
        <mxCell id="Th4hmaJLGE-ZN5Z5oCGe-33" style="edgeStyle=elbowEdgeStyle;rounded=1;orthogonalLoop=1;jettySize=auto;html=1;entryX=1;entryY=0.5;entryDx=0;entryDy=0;fontFamily=Helvetica;fontSize=12;fontColor=#000000;jumpStyle=arc;" parent="kpDK0dZMDAlXJJjRmCyd-1" source="Th4hmaJLGE-ZN5Z5oCGe-16" target="Th4hmaJLGE-ZN5Z5oCGe-32" edge="1">
          <mxGeometry relative="1" as="geometry" />
        </mxCell>
        <mxCell id="Th4hmaJLGE-ZN5Z5oCGe-37" style="edgeStyle=elbowEdgeStyle;rounded=1;orthogonalLoop=1;jettySize=auto;html=1;fontFamily=Helvetica;fontSize=12;fontColor=#000000;exitX=0;exitY=0.25;exitDx=0;exitDy=0;jumpStyle=arc;" parent="kpDK0dZMDAlXJJjRmCyd-1" source="Th4hmaJLGE-ZN5Z5oCGe-16" target="Th4hmaJLGE-ZN5Z5oCGe-36" edge="1">
          <mxGeometry relative="1" as="geometry" />
        </mxCell>
        <mxCell id="Th4hmaJLGE-ZN5Z5oCGe-16" value="Security" style="rounded=1;whiteSpace=wrap;html=1;strokeColor=#666666;strokeWidth=1;fillColor=none;fontSize=12;fontColor=#333333;align=center;" parent="kpDK0dZMDAlXJJjRmCyd-1" vertex="1">
          <mxGeometry x="470" y="560" width="80" height="40" as="geometry" />
        </mxCell>
        <mxCell id="Th4hmaJLGE-ZN5Z5oCGe-17" value="Monitor Host Availability" style="rounded=1;whiteSpace=wrap;html=1;strokeColor=#666666;strokeWidth=1;fillColor=none;fontSize=12;fontColor=#333333;align=center;" parent="kpDK0dZMDAlXJJjRmCyd-1" vertex="1">
          <mxGeometry x="230" y="710" width="80" height="40" as="geometry" />
        </mxCell>
        <mxCell id="Th4hmaJLGE-ZN5Z5oCGe-18" value="Monitor Backups Happening" style="rounded=1;whiteSpace=wrap;html=1;strokeColor=#666666;strokeWidth=1;fillColor=none;fontSize=12;fontColor=#333333;align=center;" parent="kpDK0dZMDAlXJJjRmCyd-1" vertex="1">
          <mxGeometry x="230" y="360" width="80" height="40" as="geometry" />
        </mxCell>
        <mxCell id="Th4hmaJLGE-ZN5Z5oCGe-21" value="Monitor Service&amp;nbsp;&lt;br&gt;(TTL)" style="rounded=1;whiteSpace=wrap;html=1;strokeColor=#666666;strokeWidth=1;fillColor=none;fontSize=12;fontColor=#333333;align=center;" parent="kpDK0dZMDAlXJJjRmCyd-1" vertex="1">
          <mxGeometry x="230" y="810" width="80" height="40" as="geometry" />
        </mxCell>
        <mxCell id="Th4hmaJLGE-ZN5Z5oCGe-22" value="Monitor Network (TTR)" style="rounded=1;whiteSpace=wrap;html=1;strokeColor=#666666;strokeWidth=1;fillColor=none;fontSize=12;fontColor=#333333;align=center;" parent="kpDK0dZMDAlXJJjRmCyd-1" vertex="1">
          <mxGeometry x="230" y="760" width="80" height="40" as="geometry" />
        </mxCell>
        <mxCell id="Th4hmaJLGE-ZN5Z5oCGe-31" value="ISO-25010&lt;br&gt;Qualities" style="rounded=1;whiteSpace=wrap;html=1;strokeColor=#666666;strokeWidth=1;fillColor=#f5f5f5;fontSize=12;fontColor=#333333;align=center;" parent="kpDK0dZMDAlXJJjRmCyd-1" vertex="1">
          <mxGeometry x="470" y="200" width="80" height="40" as="geometry" />
        </mxCell>
        <mxCell id="Th4hmaJLGE-ZN5Z5oCGe-32" value="Pipeline Penetration Testing" style="rounded=1;whiteSpace=wrap;html=1;strokeColor=#666666;strokeWidth=1;fillColor=none;fontSize=12;fontColor=#333333;align=center;" parent="kpDK0dZMDAlXJJjRmCyd-1" vertex="1">
          <mxGeometry x="230" y="610" width="80" height="40" as="geometry" />
        </mxCell>
        <mxCell id="Th4hmaJLGE-ZN5Z5oCGe-34" value="Monitor Pipeline Errors" style="rounded=1;whiteSpace=wrap;html=1;strokeColor=#666666;strokeWidth=1;fillColor=none;fontSize=12;fontColor=#333333;align=center;" parent="kpDK0dZMDAlXJJjRmCyd-1" vertex="1">
          <mxGeometry x="230" y="410" width="80" height="40" as="geometry" />
        </mxCell>
        <mxCell id="Th4hmaJLGE-ZN5Z5oCGe-36" value="Monitor Code Warnings" style="rounded=1;whiteSpace=wrap;html=1;strokeColor=#666666;strokeWidth=1;fillColor=none;fontSize=12;fontColor=#333333;align=center;" parent="kpDK0dZMDAlXJJjRmCyd-1" vertex="1">
          <mxGeometry x="230" y="510" width="80" height="40" as="geometry" />
        </mxCell>
        <mxCell id="Th4hmaJLGE-ZN5Z5oCGe-45" style="edgeStyle=elbowEdgeStyle;rounded=1;orthogonalLoop=1;jettySize=auto;html=1;entryX=1;entryY=0.5;entryDx=0;entryDy=0;fontFamily=Helvetica;fontSize=12;fontColor=#000000;jumpStyle=arc;" parent="kpDK0dZMDAlXJJjRmCyd-1" source="Th4hmaJLGE-ZN5Z5oCGe-43" target="Th4hmaJLGE-ZN5Z5oCGe-44" edge="1">
          <mxGeometry relative="1" as="geometry" />
        </mxCell>
        <mxCell id="Th4hmaJLGE-ZN5Z5oCGe-43" value="Maintainability" style="rounded=1;whiteSpace=wrap;html=1;strokeColor=#666666;strokeWidth=1;fillColor=none;fontSize=12;fontColor=#333333;align=center;" parent="kpDK0dZMDAlXJJjRmCyd-1" vertex="1">
          <mxGeometry x="470" y="460" width="80" height="40" as="geometry" />
        </mxCell>
        <mxCell id="Th4hmaJLGE-ZN5Z5oCGe-44" value="Monitor Component Versions" style="rounded=1;whiteSpace=wrap;html=1;strokeColor=#666666;strokeWidth=1;fillColor=none;fontSize=12;fontColor=#333333;align=center;" parent="kpDK0dZMDAlXJJjRmCyd-1" vertex="1">
          <mxGeometry x="230" y="460" width="80" height="40" as="geometry" />
        </mxCell>
        <mxCell id="Th4hmaJLGE-ZN5Z5oCGe-49" style="edgeStyle=elbowEdgeStyle;rounded=1;orthogonalLoop=1;jettySize=auto;html=1;entryX=1;entryY=0.5;entryDx=0;entryDy=0;fontFamily=Helvetica;fontSize=12;fontColor=#000000;exitX=0;exitY=0.75;exitDx=0;exitDy=0;jumpStyle=arc;" parent="kpDK0dZMDAlXJJjRmCyd-1" source="Th4hmaJLGE-ZN5Z5oCGe-47" target="Th4hmaJLGE-ZN5Z5oCGe-48" edge="1">
          <mxGeometry relative="1" as="geometry">
            <Array as="points">
              <mxPoint x="440" y="860" />
            </Array>
          </mxGeometry>
        </mxCell>
        <mxCell id="Th4hmaJLGE-ZN5Z5oCGe-47" value="Functionality" style="rounded=1;whiteSpace=wrap;html=1;strokeColor=#666666;strokeWidth=1;fillColor=none;fontSize=12;fontColor=#333333;align=center;" parent="kpDK0dZMDAlXJJjRmCyd-1" vertex="1">
          <mxGeometry x="470" y="810" width="80" height="40" as="geometry" />
        </mxCell>
        <mxCell id="Th4hmaJLGE-ZN5Z5oCGe-48" value="Monitor Error Responses" style="rounded=1;whiteSpace=wrap;html=1;strokeColor=#666666;strokeWidth=1;fillColor=none;fontSize=12;fontColor=#333333;align=center;" parent="kpDK0dZMDAlXJJjRmCyd-1" vertex="1">
          <mxGeometry x="230" y="860" width="80" height="40" as="geometry" />
        </mxCell>
        <mxCell id="Th4hmaJLGE-ZN5Z5oCGe-60" style="edgeStyle=elbowEdgeStyle;rounded=1;orthogonalLoop=1;jettySize=auto;html=1;entryX=0;entryY=0.5;entryDx=0;entryDy=0;fontFamily=Helvetica;fontSize=12;fontColor=#000000;" parent="kpDK0dZMDAlXJJjRmCyd-1" source="Th4hmaJLGE-ZN5Z5oCGe-51" target="Th4hmaJLGE-ZN5Z5oCGe-18" edge="1">
          <mxGeometry relative="1" as="geometry" />
        </mxCell>
        <mxCell id="Th4hmaJLGE-ZN5Z5oCGe-51" value="Alert Backup Failures" style="rounded=1;whiteSpace=wrap;html=1;strokeColor=#666666;strokeWidth=1;fillColor=none;fontSize=12;fontColor=#333333;align=center;" parent="kpDK0dZMDAlXJJjRmCyd-1" vertex="1">
          <mxGeometry x="120" y="360" width="80" height="40" as="geometry" />
        </mxCell>
        <mxCell id="Th4hmaJLGE-ZN5Z5oCGe-61" style="edgeStyle=elbowEdgeStyle;rounded=1;orthogonalLoop=1;jettySize=auto;html=1;fontFamily=Helvetica;fontSize=12;fontColor=#000000;" parent="kpDK0dZMDAlXJJjRmCyd-1" source="Th4hmaJLGE-ZN5Z5oCGe-52" target="Th4hmaJLGE-ZN5Z5oCGe-10" edge="1">
          <mxGeometry relative="1" as="geometry" />
        </mxCell>
        <mxCell id="Th4hmaJLGE-ZN5Z5oCGe-62" style="edgeStyle=elbowEdgeStyle;rounded=1;orthogonalLoop=1;jettySize=auto;html=1;fontFamily=Helvetica;fontSize=12;fontColor=#000000;" parent="kpDK0dZMDAlXJJjRmCyd-1" source="Th4hmaJLGE-ZN5Z5oCGe-52" target="Th4hmaJLGE-ZN5Z5oCGe-13" edge="1">
          <mxGeometry relative="1" as="geometry" />
        </mxCell>
        <mxCell id="Th4hmaJLGE-ZN5Z5oCGe-52" value="Alert Subscription Failures" style="rounded=1;whiteSpace=wrap;html=1;strokeColor=#666666;strokeWidth=1;fillColor=none;fontSize=12;fontColor=#333333;align=center;" parent="kpDK0dZMDAlXJJjRmCyd-1" vertex="1">
          <mxGeometry x="120" y="280" width="80" height="40" as="geometry" />
        </mxCell>
        <mxCell id="Th4hmaJLGE-ZN5Z5oCGe-54" style="edgeStyle=elbowEdgeStyle;rounded=1;orthogonalLoop=1;jettySize=auto;html=1;entryX=0;entryY=0.5;entryDx=0;entryDy=0;fontFamily=Helvetica;fontSize=12;fontColor=#000000;" parent="kpDK0dZMDAlXJJjRmCyd-1" source="Th4hmaJLGE-ZN5Z5oCGe-53" target="Th4hmaJLGE-ZN5Z5oCGe-32" edge="1">
          <mxGeometry relative="1" as="geometry" />
        </mxCell>
        <mxCell id="Th4hmaJLGE-ZN5Z5oCGe-55" style="edgeStyle=elbowEdgeStyle;rounded=1;orthogonalLoop=1;jettySize=auto;html=1;entryX=0;entryY=0.5;entryDx=0;entryDy=0;fontFamily=Helvetica;fontSize=12;fontColor=#000000;" parent="kpDK0dZMDAlXJJjRmCyd-1" source="Th4hmaJLGE-ZN5Z5oCGe-53" target="Th4hmaJLGE-ZN5Z5oCGe-44" edge="1">
          <mxGeometry relative="1" as="geometry" />
        </mxCell>
        <mxCell id="Th4hmaJLGE-ZN5Z5oCGe-53" value="Alert Security&amp;nbsp; Warnings" style="rounded=1;whiteSpace=wrap;html=1;strokeColor=#666666;strokeWidth=1;fillColor=none;fontSize=12;fontColor=#333333;align=center;" parent="kpDK0dZMDAlXJJjRmCyd-1" vertex="1">
          <mxGeometry x="110" y="510" width="80" height="40" as="geometry" />
        </mxCell>
        <mxCell id="Th4hmaJLGE-ZN5Z5oCGe-56" value="Monitor Network Traffic" style="rounded=1;whiteSpace=wrap;html=1;strokeColor=#666666;strokeWidth=1;fillColor=none;fontSize=12;fontColor=#333333;align=center;" parent="kpDK0dZMDAlXJJjRmCyd-1" vertex="1">
          <mxGeometry x="230" y="910" width="80" height="40" as="geometry" />
        </mxCell>
        <mxCell id="Th4hmaJLGE-ZN5Z5oCGe-59" style="edgeStyle=elbowEdgeStyle;rounded=1;orthogonalLoop=1;jettySize=auto;html=1;fontFamily=Helvetica;fontSize=12;fontColor=#000000;" parent="kpDK0dZMDAlXJJjRmCyd-1" source="Th4hmaJLGE-ZN5Z5oCGe-58" target="Th4hmaJLGE-ZN5Z5oCGe-56" edge="1">
          <mxGeometry relative="1" as="geometry" />
        </mxCell>
        <mxCell id="Th4hmaJLGE-ZN5Z5oCGe-58" value="Alert Security&amp;nbsp; Risks" style="rounded=1;whiteSpace=wrap;html=1;strokeColor=#666666;strokeWidth=1;fillColor=none;fontSize=12;fontColor=#333333;align=center;" parent="kpDK0dZMDAlXJJjRmCyd-1" vertex="1">
          <mxGeometry x="110" y="910" width="80" height="40" as="geometry" />
        </mxCell>
        <mxCell id="Th4hmaJLGE-ZN5Z5oCGe-64" style="edgeStyle=elbowEdgeStyle;rounded=1;orthogonalLoop=1;jettySize=auto;html=1;entryX=0;entryY=0.5;entryDx=0;entryDy=0;fontFamily=Helvetica;fontSize=12;fontColor=#000000;" parent="kpDK0dZMDAlXJJjRmCyd-1" source="Th4hmaJLGE-ZN5Z5oCGe-63" target="Th4hmaJLGE-ZN5Z5oCGe-14" edge="1">
          <mxGeometry relative="1" as="geometry" />
        </mxCell>
        <mxCell id="Th4hmaJLGE-ZN5Z5oCGe-65" style="edgeStyle=elbowEdgeStyle;rounded=1;orthogonalLoop=1;jettySize=auto;html=1;entryX=0;entryY=0.5;entryDx=0;entryDy=0;fontFamily=Helvetica;fontSize=12;fontColor=#000000;" parent="kpDK0dZMDAlXJJjRmCyd-1" source="Th4hmaJLGE-ZN5Z5oCGe-63" target="Th4hmaJLGE-ZN5Z5oCGe-17" edge="1">
          <mxGeometry relative="1" as="geometry" />
        </mxCell>
        <mxCell id="Th4hmaJLGE-ZN5Z5oCGe-66" style="edgeStyle=elbowEdgeStyle;rounded=1;orthogonalLoop=1;jettySize=auto;html=1;entryX=0;entryY=0.5;entryDx=0;entryDy=0;fontFamily=Helvetica;fontSize=12;fontColor=#000000;" parent="kpDK0dZMDAlXJJjRmCyd-1" source="Th4hmaJLGE-ZN5Z5oCGe-63" target="Th4hmaJLGE-ZN5Z5oCGe-22" edge="1">
          <mxGeometry relative="1" as="geometry" />
        </mxCell>
        <mxCell id="Th4hmaJLGE-ZN5Z5oCGe-67" style="edgeStyle=elbowEdgeStyle;rounded=1;orthogonalLoop=1;jettySize=auto;html=1;entryX=0;entryY=0.5;entryDx=0;entryDy=0;fontFamily=Helvetica;fontSize=12;fontColor=#000000;" parent="kpDK0dZMDAlXJJjRmCyd-1" source="Th4hmaJLGE-ZN5Z5oCGe-63" target="Th4hmaJLGE-ZN5Z5oCGe-21" edge="1">
          <mxGeometry relative="1" as="geometry" />
        </mxCell>
        <mxCell id="Th4hmaJLGE-ZN5Z5oCGe-63" value="Alert QOS" style="rounded=1;whiteSpace=wrap;html=1;strokeColor=#666666;strokeWidth=1;fillColor=none;fontSize=12;fontColor=#333333;align=center;" parent="kpDK0dZMDAlXJJjRmCyd-1" vertex="1">
          <mxGeometry x="110" y="710" width="80" height="40" as="geometry" />
        </mxCell>
        <mxCell id="oXLYr0-WDJrzs4Nkk2H6-5" value="Monitor Automated Functionality Testing" style="rounded=1;whiteSpace=wrap;html=1;strokeColor=#666666;strokeWidth=1;fillColor=none;fontSize=12;fontColor=#333333;align=center;" parent="kpDK0dZMDAlXJJjRmCyd-1" vertex="1">
          <mxGeometry x="230" y="560" width="80" height="40" as="geometry" />
        </mxCell>
      </root>
    </mxGraphModel>
  </diagram>
</mxfile>
